<mxfile host="app.diagrams.net" modified="2023-10-17T04:12:57.995Z" agent="Mozilla/5.0 (Windows NT 10.0; Win64; x64; rv:109.0) Gecko/20100101 Firefox/118.0" etag="9lD6WMntQ_TK2wp-1K0i" version="22.0.4" type="github">
  <diagram name="Page-1" id="K489wWiNWLVVvt8ASETc">
    <mxGraphModel dx="880" dy="470" grid="1" gridSize="10" guides="1" tooltips="1" connect="1" arrows="1" fold="1" page="1" pageScale="1" pageWidth="850" pageHeight="1100" math="0" shadow="0">
      <root>
        <mxCell id="0" />
        <mxCell id="1" parent="0" />
        <mxCell id="2GpltXOsZLHXe869pukK-5" style="edgeStyle=orthogonalEdgeStyle;rounded=0;orthogonalLoop=1;jettySize=auto;html=1;exitX=0.5;exitY=1;exitDx=0;exitDy=0;" edge="1" parent="1">
          <mxGeometry relative="1" as="geometry">
            <mxPoint x="425" y="190" as="targetPoint" />
            <mxPoint x="425" y="110" as="sourcePoint" />
          </mxGeometry>
        </mxCell>
        <mxCell id="2GpltXOsZLHXe869pukK-15" style="edgeStyle=orthogonalEdgeStyle;rounded=0;orthogonalLoop=1;jettySize=auto;html=1;" edge="1" parent="1" source="2GpltXOsZLHXe869pukK-6">
          <mxGeometry relative="1" as="geometry">
            <mxPoint x="540" y="355" as="targetPoint" />
          </mxGeometry>
        </mxCell>
        <mxCell id="2GpltXOsZLHXe869pukK-21" value="Y" style="edgeLabel;html=1;align=center;verticalAlign=middle;resizable=0;points=[];" vertex="1" connectable="0" parent="2GpltXOsZLHXe869pukK-15">
          <mxGeometry x="-0.0922" relative="1" as="geometry">
            <mxPoint as="offset" />
          </mxGeometry>
        </mxCell>
        <mxCell id="2GpltXOsZLHXe869pukK-6" value="BIL MOD 2= 0" style="rhombus;whiteSpace=wrap;html=1;" vertex="1" parent="1">
          <mxGeometry x="385" y="310" width="85" height="90" as="geometry" />
        </mxCell>
        <mxCell id="2GpltXOsZLHXe869pukK-9" value="&amp;nbsp;BILANGAN" style="shape=parallelogram;perimeter=parallelogramPerimeter;whiteSpace=wrap;html=1;fixedSize=1;" vertex="1" parent="1">
          <mxGeometry x="365" y="190" width="120" height="60" as="geometry" />
        </mxCell>
        <mxCell id="2GpltXOsZLHXe869pukK-10" style="edgeStyle=orthogonalEdgeStyle;rounded=0;orthogonalLoop=1;jettySize=auto;html=1;exitX=0.5;exitY=1;exitDx=0;exitDy=0;entryX=0.471;entryY=0.089;entryDx=0;entryDy=0;entryPerimeter=0;" edge="1" parent="1" source="2GpltXOsZLHXe869pukK-9" target="2GpltXOsZLHXe869pukK-6">
          <mxGeometry relative="1" as="geometry" />
        </mxCell>
        <mxCell id="2GpltXOsZLHXe869pukK-11" value="GANJIL" style="shape=parallelogram;perimeter=parallelogramPerimeter;whiteSpace=wrap;html=1;fixedSize=1;" vertex="1" parent="1">
          <mxGeometry x="365" y="460" width="120" height="60" as="geometry" />
        </mxCell>
        <mxCell id="2GpltXOsZLHXe869pukK-12" style="edgeStyle=orthogonalEdgeStyle;rounded=0;orthogonalLoop=1;jettySize=auto;html=1;exitX=0.5;exitY=1;exitDx=0;exitDy=0;entryX=0.525;entryY=0.167;entryDx=0;entryDy=0;entryPerimeter=0;" edge="1" parent="1" source="2GpltXOsZLHXe869pukK-6" target="2GpltXOsZLHXe869pukK-11">
          <mxGeometry relative="1" as="geometry" />
        </mxCell>
        <mxCell id="2GpltXOsZLHXe869pukK-22" value="T" style="edgeLabel;html=1;align=center;verticalAlign=middle;resizable=0;points=[];" vertex="1" connectable="0" parent="2GpltXOsZLHXe869pukK-12">
          <mxGeometry x="-0.1492" y="1" relative="1" as="geometry">
            <mxPoint x="1" y="-2" as="offset" />
          </mxGeometry>
        </mxCell>
        <mxCell id="2GpltXOsZLHXe869pukK-13" value="END" style="html=1;dashed=0;whiteSpace=wrap;shape=mxgraph.dfd.start" vertex="1" parent="1">
          <mxGeometry x="380" y="580" width="80" height="30" as="geometry" />
        </mxCell>
        <mxCell id="2GpltXOsZLHXe869pukK-14" style="edgeStyle=orthogonalEdgeStyle;rounded=0;orthogonalLoop=1;jettySize=auto;html=1;exitX=0.5;exitY=1;exitDx=0;exitDy=0;entryX=0.563;entryY=0.333;entryDx=0;entryDy=0;entryPerimeter=0;" edge="1" parent="1" source="2GpltXOsZLHXe869pukK-11" target="2GpltXOsZLHXe869pukK-13">
          <mxGeometry relative="1" as="geometry" />
        </mxCell>
        <mxCell id="2GpltXOsZLHXe869pukK-16" value="GENAP" style="shape=parallelogram;html=1;strokeWidth=2;perimeter=parallelogramPerimeter;whiteSpace=wrap;rounded=1;arcSize=12;size=0.23;" vertex="1" parent="1">
          <mxGeometry x="530" y="325" width="100" height="65" as="geometry" />
        </mxCell>
        <mxCell id="2GpltXOsZLHXe869pukK-20" style="edgeStyle=orthogonalEdgeStyle;rounded=0;orthogonalLoop=1;jettySize=auto;html=1;exitX=0.5;exitY=1;exitDx=0;exitDy=0;entryX=1;entryY=0.5;entryDx=0;entryDy=0;entryPerimeter=0;" edge="1" parent="1" source="2GpltXOsZLHXe869pukK-16" target="2GpltXOsZLHXe869pukK-13">
          <mxGeometry relative="1" as="geometry" />
        </mxCell>
        <mxCell id="2GpltXOsZLHXe869pukK-23" value="START" style="html=1;dashed=0;whiteSpace=wrap;shape=mxgraph.dfd.start" vertex="1" parent="1">
          <mxGeometry x="385" y="90" width="80" height="30" as="geometry" />
        </mxCell>
      </root>
    </mxGraphModel>
  </diagram>
</mxfile>
